<svg preserveAspectRatio="none" width="100%" height="100%" overflow="visible" style="display: block;" viewBox="0 0 46 46" fill="none" xmlns="http://www.w3.org/2000/svg">
<g id="Barbell" clip-path="url(#clip0_0_52)">
<g id="Vector">
</g>
<g id="Group 20">
<path id="Vector_2" d="M22.958 23.01L38.9681 7" stroke="var(--stroke-0, white)" stroke-width="3" stroke-linecap="round" stroke-linejoin="round"/>
<path id="Vector_3" d="M34.2835 11.69C31.4477 8.86092 27.6534 7.19922 23.6511 7.03363C19.6489 6.86804 15.7303 8.21062 12.6705 10.7958C9.61072 13.3809 7.63266 17.0203 7.12764 20.994C6.62262 24.9677 7.62743 28.9862 9.94328 32.2545C12.2591 35.5228 15.7173 37.8029 19.6338 38.6437C23.5502 39.4845 27.6395 38.8248 31.0928 36.795C34.5461 34.7652 37.1118 31.5132 38.2823 27.6824C39.4528 23.8516 39.1428 19.721 37.4138 16.1078" stroke="var(--stroke-0, white)" stroke-width="3" stroke-linecap="round" stroke-linejoin="round"/>
<path id="Vector_4" d="M28.615 17.3505C27.2908 16.0279 25.545 15.2111 23.6811 15.0421C21.8171 14.873 19.9529 15.3624 18.4123 16.4252C16.8718 17.488 15.7523 19.057 15.2485 20.8594C14.7447 22.6619 14.8883 24.584 15.6546 26.2915C16.4208 27.9991 17.7611 29.3842 19.4425 30.2061C21.124 31.028 23.0402 31.2348 24.8583 30.7905C26.6764 30.3462 28.2814 29.2789 29.3942 27.7742C30.5071 26.2694 31.0575 24.4222 30.9498 22.5538" stroke="var(--stroke-0, white)" stroke-width="3" stroke-linecap="round" stroke-linejoin="round"/>
</g>
</g>
<defs>
<clipPath id="clip0_0_52">
<rect width="46" height="46" fill="white"/>
</clipPath>
</defs>
</svg>
