<svg preserveAspectRatio="none" width="100%" height="100%" overflow="visible" style="display: block;" viewBox="0 0 33.1276 29.5377" fill="none" xmlns="http://www.w3.org/2000/svg">
<g id="Group">
<path id="Vector" d="M32.5256 28.7355C31.109 28.4418 29.6717 28.238 28.2275 28.1205C28.0962 28.1067 27.9649 28.0998 27.8337 28.0894C26.9699 28.0272 26.0992 27.9961 25.232 27.9961C23.0484 27.9961 20.8752 28.1931 18.7366 28.5835C18.6226 28.6042 18.5051 28.6249 18.3876 28.6491C17.2198 28.8737 16.0589 29.157 14.9153 29.4956C14.4558 29.6338 13.9687 29.4231 13.7683 28.9946L0 9.15527e-05H19.8076L33.0784 28.0272C33.2546 28.3969 32.9298 28.815 32.5256 28.7355Z" fill="var(--fill-0, #F41943)"/>
<path id="Vector_2" d="M28.2284 28.1205C28.0971 28.1067 27.9658 28.0998 27.8345 28.0894L14.5327 9.15527e-05H14.9127L28.2284 28.1205Z" fill="var(--fill-0, #F9B906)"/>
<path id="Vector_3" d="M18.7379 28.5835C18.6239 28.6042 18.5064 28.6249 18.3889 28.6491L4.78305 9.15527e-05H5.1631L18.7379 28.5835Z" fill="var(--fill-0, #F9B906)"/>
</g>
</svg>
