<svg preserveAspectRatio="none" width="100%" height="100%" overflow="visible" style="display: block;" viewBox="0 0 33.1274 29.5377" fill="none" xmlns="http://www.w3.org/2000/svg">
<g id="Group">
<path id="Vector" d="M32.5256 28.7354C31.109 28.4417 29.6717 28.2379 28.2275 28.1204C28.0962 28.1066 27.9649 28.0997 27.8337 28.0893C26.9699 28.0271 26.0992 27.996 25.232 27.996C23.0484 27.996 20.8752 28.193 18.7366 28.5834C18.6226 28.6041 18.5051 28.6249 18.3876 28.649C17.2198 28.8736 16.0589 29.1569 14.9153 29.4955C14.4558 29.6337 13.9687 29.423 13.7683 28.9945L0 0H19.8076L33.0784 28.0271C33.2546 28.3968 32.9298 28.8149 32.5256 28.7354Z" fill="var(--fill-0, #F41943)"/>
<path id="Vector_2" d="M28.2284 28.1204C28.0971 28.1066 27.9658 28.0997 27.8345 28.0893L14.5327 0H14.9127L28.2284 28.1204Z" fill="var(--fill-0, #F9B906)"/>
<path id="Vector_3" d="M18.7379 28.5834C18.6239 28.6041 18.5064 28.6249 18.3889 28.649L4.78305 0H5.16309L18.7379 28.5834Z" fill="var(--fill-0, #F9B906)"/>
</g>
</svg>
