<svg preserveAspectRatio="none" width="100%" height="100%" overflow="visible" style="display: block;" viewBox="0 0 66 66" fill="none" xmlns="http://www.w3.org/2000/svg">
<g id="Thermometer">
<g clip-path="url(#clip0_str)">
<g id="Group 32">
<path d="M34.2319 18.2847C33.8414 18.1066 33.4172 18.0144 32.9879 18.0144C32.5587 18.0144 32.1345 18.1066 31.744 18.2847L18.8999 24.1297C18.634 24.247 18.4078 24.4391 18.2491 24.6825C18.0904 24.926 18.0058 25.2104 18.0058 25.5011C18.0058 25.7917 18.0904 26.0761 18.2491 26.3196C18.4078 26.5631 18.634 26.7551 18.8999 26.8724L31.759 32.7324C32.1495 32.9105 32.5737 33.0027 33.0029 33.0027C33.4321 33.0027 33.8564 32.9105 34.2469 32.7324L47.1059 26.8874C47.3719 26.7701 47.598 26.578 47.7567 26.3346C47.9155 26.0911 48 25.8067 48 25.516C48 25.2254 47.9155 24.941 47.7567 24.6975C47.598 24.454 47.3719 24.262 47.1059 24.1447L34.2319 18.2847Z" stroke="white" stroke-width="2" stroke-linecap="round" stroke-linejoin="round"/>
<path d="M18 33.0016C17.9993 33.2883 18.0808 33.5692 18.2349 33.8109C18.3889 34.0526 18.6091 34.2451 18.8693 34.3655L31.7583 40.2255C32.1468 40.4014 32.5683 40.4924 32.9948 40.4924C33.4212 40.4924 33.8427 40.4014 34.2312 40.2255L47.0903 34.3805C47.3556 34.2612 47.5804 34.0674 47.7374 33.8226C47.8944 33.5777 47.9768 33.2925 47.9745 33.0016" stroke="white" stroke-width="2" stroke-linecap="round" stroke-linejoin="round"/>
<path d="M18 40.4953C17.9993 40.7819 18.0808 41.0628 18.2349 41.3045C18.3889 41.5462 18.6091 41.7387 18.8693 41.8591L31.7583 47.7191C32.1468 47.895 32.5683 47.986 32.9948 47.986C33.4212 47.986 33.8427 47.895 34.2312 47.7191L47.0903 41.8741C47.3556 41.7549 47.5804 41.561 47.7374 41.3162C47.8944 41.0713 47.9768 40.7861 47.9745 40.4953" stroke="white" stroke-width="2" stroke-linecap="round" stroke-linejoin="round"/>
</g>
</g>
</g>
<defs>
<clipPath id="clip0_str">
<rect width="66" height="66" rx="18" fill="white"/>
</clipPath>
</defs>
</svg>
