<svg preserveAspectRatio="none" width="100%" height="100%" overflow="visible" style="display: block;" viewBox="0 0 66 66" fill="none" xmlns="http://www.w3.org/2000/svg">
<g id="Thermometer">
<g clip-path="url(#clip0_0_45)">
<rect width="66" height="66" rx="11" fill="var(--fill-0, #AA0929)"/>
<g id="Vector">
</g>
<g id="Group 17">
<path id="Vector_2" d="M43.7801 28.962C45.6402 28.962 47.1481 27.4541 47.1481 25.594C47.1481 23.7339 45.6402 22.226 43.7801 22.226C41.92 22.226 40.4121 23.7339 40.4121 25.594C40.4121 27.4541 41.92 28.962 43.7801 28.962Z" stroke="var(--stroke-0, white)" stroke-width="2" stroke-linecap="round" stroke-linejoin="round"/>
<path id="Vector_3" d="M28.5637 38.6399L28.5637 19.7791" stroke="var(--stroke-0, white)" stroke-width="2" stroke-linecap="round" stroke-linejoin="round"/>
<path id="Vector_4" d="M28.2875 46.4765C30.5196 46.4765 32.3291 44.6671 32.3291 42.4349C32.3291 40.2028 30.5196 38.3933 28.2875 38.3933C26.0554 38.3933 24.2459 40.2028 24.2459 42.4349C24.2459 44.6671 26.0554 46.4765 28.2875 46.4765Z" stroke="var(--stroke-0, white)" stroke-width="2" stroke-linecap="round" stroke-linejoin="round"/>
<path id="Vector_5" d="M22.8987 19.5317C22.8987 18.1025 23.4665 16.7318 24.4771 15.7212C25.4877 14.7106 26.8583 14.1429 28.2875 14.1429C29.7167 14.1429 31.0874 14.7106 32.098 15.7212C33.1086 16.7318 33.6763 18.1025 33.6763 19.5317V34.6877C35.324 35.8349 36.5624 37.478 37.2115 39.3779C37.8606 41.2778 37.8864 43.3352 37.2852 45.2507C36.684 47.1663 35.4871 48.84 33.8688 50.0282C32.2505 51.2164 30.2952 51.8571 28.2875 51.8571C26.2799 51.8571 24.3246 51.2164 22.7063 50.0282C21.088 48.84 19.8911 47.1663 19.2899 45.2507C18.6887 43.3352 18.7145 41.2778 19.3636 39.3779C20.0127 37.478 21.2511 35.8349 22.8987 34.6877V19.5317Z" stroke="var(--stroke-0, white)" stroke-width="2" stroke-linecap="round" stroke-linejoin="round"/>
</g>
</g>
</g>
<defs>
<clipPath id="clip0_0_45">
<rect width="66" height="66" rx="11" fill="white"/>
</clipPath>
</defs>
</svg>
