<svg preserveAspectRatio="none" width="100%" height="100%" overflow="visible" style="display: block;" viewBox="0 0 220 220" fill="none" xmlns="http://www.w3.org/2000/svg">
<g id="Icon">
<path id="Vector" d="M110 212.3C166.499 212.3 212.3 166.499 212.3 110C212.3 53.5013 166.499 7.7 110 7.7C53.5013 7.7 7.7 53.5013 7.7 110C7.7 166.499 53.5013 212.3 110 212.3Z" stroke="var(--stroke-0, white)" stroke-opacity="0.1" stroke-width="13.2"/>
<path id="Vector_2" d="M212.3 110C212.3 53.5013 166.499 7.7 110 7.7C53.5013 7.7 7.7 53.5013 7.7 110" stroke="var(--stroke-0, #43A77C)" stroke-width="13.2" stroke-linecap="round"/>
<path id="Vector_3" d="M110 188.1C153.133 188.1 188.1 153.133 188.1 110C188.1 66.8666 153.133 31.9 110 31.9C66.8666 31.9 31.9 66.8666 31.9 110C31.9 153.133 66.8666 188.1 110 188.1Z" stroke="var(--stroke-0, white)" stroke-opacity="0.1" stroke-width="13.2"/>
<path id="Vector_4" d="M188.1 110C188.1 66.8666 153.133 31.9 110 31.9C66.8666 31.9 31.9 66.8666 31.9 110" stroke="var(--stroke-0, #758DB2)" stroke-width="13.2" stroke-linecap="round"/>
<path id="Vector_5" d="M110 163.9C139.768 163.9 163.9 139.768 163.9 110C163.9 80.2319 139.768 56.1 110 56.1C80.2319 56.1 56.1 80.2319 56.1 110C56.1 139.768 80.2319 163.9 110 163.9Z" stroke="var(--stroke-0, white)" stroke-opacity="0.1" stroke-width="13.2"/>
<path id="Vector_6" d="M163.9 110C163.9 80.2319 139.768 56.1 110 56.1C80.2319 56.1 56.1 80.2319 56.1 110" stroke="var(--stroke-0, #DDDFE9)" stroke-width="13.2" stroke-linecap="round"/>
</g>
</svg>
